PathFileType	4	(X/Y/Z)	C:/Users/opensim2020/Desktop/walking_exp_matlab/subject02_walking08_straight_03.trc	
DataRate	CameraRate	NumFrames	NumMarkers	Units	OrigDataRate	OrigDataStartFrame	OrigNumFrames	
100.00	100.00	4	41	mm	100.00	2372	252	
Frame#	Time	LFHD			RFHD			LBHD			RBHD			C7			T10			CLAV			STRN			RBAK			LSHO			LUPA			LELB			LFRM			LWRA			LWRB			LFIN			RSHO			RUPA			RELB			RFRM			RWRA			RWRB			RFIN			LASI			RASI			LPSI			RPSI			LTHI			LKNE			LTIB			LANK			LHEE			LTOE			RTHI			RKNE			RTIB			RANK			RHEE			RTOE			*39			*40			
		X1	Y1	Z1	X2	Y2	Z2	X3	Y3	Z3	X4	Y4	Z4	X5	Y5	Z5	X6	Y6	Z6	X7	Y7	Z7	X8	Y8	Z8	X9	Y9	Z9	X10	Y10	Z10	X11	Y11	Z11	X12	Y12	Z12	X13	Y13	Z13	X14	Y14	Z14	X15	Y15	Z15	X16	Y16	Z16	X17	Y17	Z17	X18	Y18	Z18	X19	Y19	Z19	X20	Y20	Z20	X21	Y21	Z21	X22	Y22	Z22	X23	Y23	Z23	X24	Y24	Z24	X25	Y25	Z25	X26	Y26	Z26	X27	Y27	Z27	X28	Y28	Z28	X29	Y29	Z29	X30	Y30	Z30	X31	Y31	Z31	X32	Y32	Z32	X33	Y33	Z33	X34	Y34	Z34	X35	Y35	Z35	X36	Y36	Z36	X37	Y37	Z37	X38	Y38	Z38	X39	Y39	Z39	X40	Y40	Z40	X41	Y41	Z41	

158	1.570	-1034.31750	129.44969	1709.09741	-898.15875	83.87644	1685.49158	-1087.17688	-1.12782	1654.68298	-956.63971	-58.33660	1631.43225	-1016.81525	-96.81666	1510.99536	-1006.05719	-147.83798	1229.42175	-1031.06238	39.53563	1439.42944	-1027.84692	95.63055	1270.70850	-953.58008	-154.09624	1329.89331	-1197.42786	-35.38633	1486.21887	-1283.81299	-33.09426	1287.67529	-1302.50574	-10.13697	1147.02380	-1311.42822	45.22506	1025.01453	-1278.51563	143.91174	933.14514	-1308.71484	99.38172	914.66785	-1312.51172	143.28641	865.29156	-831.90863	-20.44753	1468.93604	-751.46844	-64.82748	1281.72888	-735.11707	-64.81635	1134.88525	-711.08612	-44.58633	1017.41455	-721.57532	2.05705	889.21210	-696.25238	-49.20004	887.77625	-688.49060	-15.21622	823.72192	-1157.33459	78.37676	963.44916	-905.35480	114.58420	970.94989	-1050.21863	-119.16656	1010.87933	-933.60516	-110.13685	1017.56085	-1199.54688	-48.97001	662.58350	-1176.09827	-112.94121	478.07535	-1162.50305	-259.03149	352.14496	-1129.85022	-373.71246	158.29240	-1073.70117	-406.79303	157.06837	-1140.19788	-277.70996	31.59843	-821.21527	108.57622	674.50079	-865.29626	157.40730	472.18274	-857.20068	143.75735	283.61328	-892.54065	145.19205	91.50410	-950.08807	113.79298	38.55642	-879.64069	299.31238	40.70461	-972.56689	15.06911	1785.36194	-3360.29248	2845.22656	1034.20935 
159	1.580	-1032.56873	139.08385	1710.41321	-895.98157	93.03893	1686.78967	-1085.11523	8.39039	1656.14771	-955.15778	-49.67077	1632.75134	-1015.23920	-87.54713	1512.14404	-1004.16089	-137.83369	1230.45117	-1029.17554	49.07136	1441.05310	-1025.79126	105.63419	1272.40674	-951.98926	-144.13181	1330.84033	-1195.49915	-25.88462	1487.87744	-1281.07935	-25.23357	1288.87891	-1299.39563	-3.71060	1148.07312	-1308.57629	49.67429	1025.22485	-1276.38159	147.13362	931.72150	-1306.24121	102.08584	913.99457	-1310.31030	145.13377	863.84790	-830.10919	-11.29159	1470.98608	-749.78577	-54.38904	1282.83789	-733.31830	-53.15354	1136.55481	-709.17529	-32.77264	1019.20422	-719.47748	14.00155	891.00140	-693.81427	-37.36294	889.63184	-686.46136	-3.99340	825.40546	-1153.52625	88.93639	964.53729	-902.50958	124.71824	973.01398	-1048.99768	-109.01799	1012.00220	-932.14734	-100.29984	1018.53558	-1198.46265	-34.59724	661.76398	-1176.95630	-94.92617	477.49124	-1162.17920	-242.87857	355.40817	-1129.57813	-361.93625	165.12494	-1072.60925	-393.70746	165.67555	-1139.69128	-275.98822	31.89433	-819.67853	120.11256	675.49518	-864.42749	162.27393	471.69006	-857.49445	145.07413	283.35446	-892.93188	145.49068	91.58355	-950.30084	113.86506	38.70304	-879.66449	299.63718	40.39283	-970.32800	24.62417	1786.68445	-3357.30493	2845.76245	1034.20337 
160	1.590	-1029.92761	148.44838	1711.75305	-894.01288	102.26916	1687.98462	-1083.18518	17.91718	1657.65210	-952.86774	-39.63518	1634.09302	-1013.65234	-78.18412	1513.39917	-1002.13464	-127.80775	1231.50208	-1027.41833	58.59414	1442.70959	-1023.91211	115.53513	1274.11426	-950.34204	-134.29066	1331.83008	-1193.68408	-16.40367	1489.54419	-1279.08081	-17.21686	1290.30237	-1296.22192	2.60762	1149.34448	-1306.16260	53.89896	1025.51807	-1274.34863	150.28091	930.33514	-1303.77856	104.49467	913.33722	-1308.08862	146.64520	862.37976	-828.58820	-2.40641	1472.81628	-747.97784	-43.73443	1284.55859	-731.60236	-41.62804	1138.30994	-707.28607	-20.87010	1021.08563	-717.48560	25.75620	892.83911	-691.51782	-25.32993	891.53497	-684.18347	7.96817	827.08319	-1149.88293	99.07944	965.69879	-899.80170	134.41190	974.97540	-1047.68896	-99.33176	1013.22937	-930.79028	-90.60899	1019.35638	-1197.58936	-19.83432	660.66071	-1177.54883	-76.47645	476.51129	-1161.85779	-225.93265	358.37582	-1129.46448	-348.55197	171.60100	-1071.70349	-379.48837	174.12573	-1139.10352	-272.76230	32.81951	-817.61591	130.16927	676.81140	-863.36676	166.21829	471.15054	-857.47858	146.64023	283.04196	-893.23120	145.80545	91.64656	-950.33942	114.07701	38.57393	-879.89520	300.01544	40.19147	-968.19757	34.07022	1787.97449	-3357.28369	2845.89502	1034.19482 
161	1.600	-1028.30176	158.00670	1713.20300	-891.96655	111.48296	1688.99768	-1080.91687	27.60308	1658.99304	-951.17865	-30.44318	1635.37183	-1012.13483	-68.75532	1514.74780	-1000.19983	-117.84654	1232.68103	-1025.78931	67.97540	1444.32813	-1022.19641	125.21356	1275.72156	-948.69818	-124.55112	1332.93542	-1191.93982	-6.96151	1491.23633	-1276.94214	-9.17626	1291.68347	-1293.41553	8.81662	1150.42371	-1303.34888	57.76895	1025.91028	-1272.26575	152.77060	928.81335	-1301.42529	106.67914	912.69263	-1305.83386	147.80577	860.92780	-827.21619	6.57809	1474.64795	-746.37628	-33.36742	1286.27893	-729.91724	-30.13988	1140.03662	-705.29291	-8.94555	1022.95081	-715.45160	37.83077	894.51404	-689.25702	-13.32323	893.52661	-682.01331	19.96476	828.95856	-1146.67212	108.71449	966.89502	-897.42480	143.65195	976.74115	-1046.29858	-90.04587	1014.56396	-929.44580	-81.17803	1020.25842	-1196.72803	-4.85007	659.48602	-1178.37012	-57.64609	475.97595	-1161.66406	-207.88701	360.53928	-1129.15894	-334.51688	177.85860	-1070.42908	-364.28732	182.01741	-1139.23682	-266.82883	35.43557	-816.33386	137.86458	678.28088	-862.35614	170.18318	471.03653	-856.73322	148.59505	282.83414	-893.18713	146.38673	91.61391	-950.47540	113.92857	38.77551	-879.84711	300.22733	40.19535	-966.17261	43.37678	1789.31616	-3357.33813	2846.00513	1034.15259 
